<?xml version="1.0" encoding="UTF-8" standalone="no"?>
<!-- Created with Inkscape (http://www.inkscape.org/) -->

<svg
   width="153.28798mm"
   height="153.28796mm"
   viewBox="0 0 153.28798 153.28796"
   version="1.1"
   id="svg1"
   xml:space="preserve"
   sodipodi:docname="category.svg"
   inkscape:version="1.4 (e7c3feb100, 2024-10-09)"
   xmlns:inkscape="http://www.inkscape.org/namespaces/inkscape"
   xmlns:sodipodi="http://sodipodi.sourceforge.net/DTD/sodipodi-0.dtd"
   xmlns="http://www.w3.org/2000/svg"
   xmlns:svg="http://www.w3.org/2000/svg"><sodipodi:namedview
     id="namedview1"
     pagecolor="#666666"
     bordercolor="#000000"
     borderopacity="0"
     inkscape:showpageshadow="2"
     inkscape:pageopacity="0.0"
     inkscape:pagecheckerboard="true"
     inkscape:deskcolor="#666666"
     inkscape:document-units="mm"
     inkscape:zoom="0.77154623"
     inkscape:cx="290.97414"
     inkscape:cy="289.67804"
     inkscape:window-width="1366"
     inkscape:window-height="701"
     inkscape:window-x="0"
     inkscape:window-y="0"
     inkscape:window-maximized="1"
     inkscape:current-layer="svg1" /><defs
     id="defs1" /><circle
     style="fill:#ffffff;fill-opacity:1;stroke-width:0.264583"
     id="path7"
     cx="64.711891"
     cy="232.28813"
     transform="translate(-0.71167001,-143.00029)"
     inkscape:label="color-3"
     r="32" /><path
     id="background1"
     style="display:none;fill:#ffffff;fill-opacity:1;stroke-width:0.265155"
     d="m 234.88551,136.3072 a 48,48 0 0 0 -48.00017,48.00017 48,48 0 0 0 48.00017,47.99966 48,48 0 0 0 48.00017,-47.99966 48,48 0 0 0 -48.00017,-48.00017 z"
     transform="translate(-170.88554,-95.019117)"
     inkscape:label="color-2" /><path
     id="background0"
     style="display:inline;fill:#ffffff;fill-opacity:1;stroke-width:0.265155"
     d="m 234.88577,120.30714 a 64,64 0 0 0 -64.00023,64.00022 64,64 0 0 0 64.00023,63.99972 64,64 0 0 0 63.99971,-63.99972 64,64 0 0 0 -63.99971,-64.00022 z m 0,16.00005 a 48,48 0 0 1 48.00017,48.00017 48,48 0 0 1 -48.00017,47.99966 48,48 0 0 1 -48.00017,-47.99966 48,48 0 0 1 48.00017,-48.00017 z"
     transform="translate(-170.88554,-95.019117)"
     inkscape:label="color-1" /><path
     id="black1"
     style="display:none;fill:#000000;fill-opacity:1;stroke-width:0.265155"
     d="m 243.97551,102.10587 a 44,44 0 0 0 -43.9999,44.00041 44,44 0 0 0 43.9999,43.9999 44,44 0 0 0 43.9999,-43.9999 44,44 0 0 0 -43.9999,-44.00041 z"
     transform="translate(-179.97555,-56.81803)"
     inkscape:label="black-2" /><path
     id="black2"
     style="display:inline;fill:#000000;fill-opacity:1;stroke-width:0.265155"
     d="m 243.97577,86.10581 a 60,60 0 0 0 -60.00047,60.00047 60,60 0 0 0 60.00047,59.99996 60,60 0 0 0 59.99995,-59.99996 60,60 0 0 0 -59.99995,-60.00047 z m 0,16.00006 a 44,44 0 0 1 43.99989,44.00041 44,44 0 0 1 -43.99989,43.9999 44,44 0 0 1 -43.9999,-43.9999 44,44 0 0 1 43.9999,-44.00041 z"
     transform="translate(-179.97555,-56.81803)"
     inkscape:label="black-1" /><path
     style="display:inline;fill:#ffffff;fill-opacity:1;stroke-width:0.264999;stroke-dasharray:none"
     id="path3"
     d="m 105,0 8.94067,16.347369 16.34737,8.940674 -16.34737,8.940673 L 105,50.576084 96.059326,34.228716 79.711958,25.288041 96.059327,16.347368 Z"
     transform="translate(22.999936)"
     inkscape:label="color-0" /><path
     style="fill:#000000;fill-opacity:1;stroke-width:0.264999;stroke-dasharray:none"
     id="path3-0"
     d="m 105,0 8.94067,16.347369 16.34737,8.940674 -16.34737,8.940673 L 105,50.576084 96.059326,34.228716 79.711958,25.288041 96.059327,16.347368 Z"
     transform="matrix(0.61704844,0,0,0.67957716,63.20985,8.10287)"
     inkscape:label="black-0" /></svg>
