<?xml version="1.0" encoding="UTF-8" standalone="no"?>
<!-- Created with Inkscape (http://www.inkscape.org/) -->

<svg
   width="153.28798mm"
   height="153.28795mm"
   viewBox="0 0 153.28798 153.28795"
   version="1.1"
   id="svg1"
   xml:space="preserve"
   sodipodi:docname="g1.svg"
   inkscape:version="1.4 (e7c3feb100, 2024-10-09)"
   xmlns:inkscape="http://www.inkscape.org/namespaces/inkscape"
   xmlns:sodipodi="http://sodipodi.sourceforge.net/DTD/sodipodi-0.dtd"
   xmlns="http://www.w3.org/2000/svg"
   xmlns:svg="http://www.w3.org/2000/svg"><sodipodi:namedview
     id="namedview1"
     pagecolor="#ffffff"
     bordercolor="#000000"
     borderopacity="0.25"
     inkscape:showpageshadow="2"
     inkscape:pageopacity="0.0"
     inkscape:pagecheckerboard="0"
     inkscape:deskcolor="#d1d1d1"
     inkscape:document-units="mm"
     showgrid="false"
     showguides="false"
     inkscape:zoom="0.38577315"
     inkscape:cx="20.737576"
     inkscape:cy="410.86322"
     inkscape:window-width="1219"
     inkscape:window-height="701"
     inkscape:window-x="255"
     inkscape:window-y="31"
     inkscape:window-maximized="0"
     inkscape:current-layer="svg1"><inkscape:grid
       id="grid1"
       units="mm"
       originx="0"
       originy="0"
       spacingx="1"
       spacingy="1"
       empcolor="#0099e5"
       empopacity="0.30196078"
       color="#0099e5"
       opacity="0.14901961"
       empspacing="5"
       enabled="true"
       visible="false" /></sodipodi:namedview><defs
     id="defs1" /><circle
     style="fill:#442178;fill-opacity:1;stroke-width:0.264583"
     id="path7"
     cx="64.000221"
     cy="89.287842"
     r="32"
     inkscape:label="color-3" /><path
     id="background1"
     style="display:none;fill:#800080;fill-opacity:1;stroke-width:0.265155"
     d="M 63.99997,41.288083 A 48,48 0 0 0 15.9998,89.288253 48,48 0 0 0 63.99997,137.28791 48,48 0 0 0 112.00014,89.288253 48,48 0 0 0 63.99997,41.288083 Z"
     inkscape:label="color-2" /><path
     id="background0"
     style="display:inline;fill:#442178;fill-opacity:1;stroke-width:0.265155"
     d="M 64.00023,25.288023 A 64,64 0 0 0 0,89.288243 64,64 0 0 0 64.00023,153.28796 64,64 0 0 0 127.99994,89.288243 64,64 0 0 0 64.00023,25.288023 Z m 0,16.00005 A 48,48 0 0 1 112.0004,89.288243 48,48 0 0 1 64.00023,137.2879 48,48 0 0 1 16.00006,89.288243 48,48 0 0 1 64.00023,41.288073 Z"
     inkscape:label="color-1" /><path
     id="black1"
     style="display:none;fill:#000000;fill-opacity:1;stroke-width:0.265155"
     d="m 63.99996,45.28784 a 44,44 0 0 0 -43.9999,44.00041 44,44 0 0 0 43.9999,43.9999 44,44 0 0 0 43.9999,-43.9999 44,44 0 0 0 -43.9999,-44.00041 z"
     inkscape:label="black-2" /><path
     id="black2"
     style="display:none;fill:#000000;fill-opacity:1;stroke-width:0.265155"
     d="M 64.00022,29.28778 A 60,60 0 0 0 3.99975,89.28825 60,60 0 0 0 64.00022,149.28821 60,60 0 0 0 124.00017,89.28825 60,60 0 0 0 64.00022,29.28778 Z m 0,16.00006 a 44,44 0 0 1 43.99989,44.00041 44,44 0 0 1 -43.99989,43.9999 44,44 0 0 1 -43.9999,-43.9999 44,44 0 0 1 43.9999,-44.00041 z"
     inkscape:label="black-1" /><path
     style="display:inline;fill:#442178;fill-opacity:1;stroke-width:0.264999;stroke-dasharray:none"
     id="path3"
     d="m 127.99994,0 8.94067,16.347369 16.34737,8.940674 -16.34737,8.940673 -8.94067,16.347368 -8.94068,-16.347368 -16.34737,-8.940675 16.34737,-8.940673 z"
     inkscape:label="color-0" /><path
     style="fill:#442178;fill-opacity:1;stroke-width:0.171602;stroke-dasharray:none"
     id="path3-0"
     d="m 127.99994,8.10287 5.51682,11.109299 10.08712,6.075877 -10.08712,6.075878 -5.51682,11.109298 -5.51683,-11.109298 -10.08712,-6.075879 10.08712,-6.075877 z"
     inkscape:label="black-0" /></svg>
